<?xml version="1.0" standalone="no"?><!DOCTYPE svg PUBLIC "-//W3C//DTD SVG 1.1//EN" "http://www.w3.org/Graphics/SVG/1.1/DTD/svg11.dtd"><svg t="1657552002873" class="icon" viewBox="0 0 1024 1024" version="1.1" xmlns="http://www.w3.org/2000/svg" p-id="2675" xmlns:xlink="http://www.w3.org/1999/xlink" width="200" height="200"><defs><style type="text/css"></style></defs><path d="M248.602095 428.721297a258.5 158.5 60 1 0 274.530053-158.5 258.5 158.5 60 1 0-274.530053 158.5Z" fill="#FFFFFF" p-id="2676"></path><path d="M515.1 592.3h-0.2c-122.2-1.6-227.9-59.2-282.6-154s-51.8-215.1 7.9-321.8c3.4-6 9.8-10 16.7-9.6 122.2 1.6 227.9 59.2 282.6 154 54.8 94.9 51.8 215.1-7.9 321.8-3.4 5.9-9.7 9.6-16.5 9.6zM267.7 144.8c-47.9 92.4-49.2 194.2-2.8 274.5 46.4 80.3 135.2 130.2 239.1 134.9 47.9-92.4 49.2-194.2 2.8-274.5-46.4-80.3-135.2-130.2-239.1-134.9z" fill="#9A4DFF" p-id="2677"></path><path d="M509.421431 573.414084a158.5 258.5 30 1 0 258.5-447.735134 158.5 258.5 30 1 0-258.5 447.735134Z" fill="#FFFFFF" p-id="2678"></path><path d="M509.5 592.3c-6.8 0-13.1-3.7-16.5-9.7-59.7-106.6-62.7-226.9-7.9-321.8 54.8-94.9 160.4-152.4 282.6-154 7.1-0.2 13.3 3.6 16.7 9.6 59.7 106.7 62.7 226.9 7.9 321.8-54.8 94.8-160.4 152.4-282.6 154-0.1 0.1-0.2 0.1-0.2 0.1z m247.4-447.5c-103.9 4.7-192.8 54.5-239.1 134.9-46.4 80.3-45.1 182.2 2.8 274.5 103.9-4.7 192.8-54.5 239.1-134.9 46.4-80.2 45.1-182.1-2.8-274.5zM509.5 919.7c-10.4 0-18.9-8.4-18.9-18.9V642c0-10.4 8.4-18.9 18.9-18.9 10.4 0 18.9 8.4 18.9 18.9v258.8c-0.1 10.4-8.5 18.9-18.9 18.9z" fill="#FF3399" p-id="2679"></path><path d="M329.3 668.3l85.9 85.9" fill="#FFFFFF" p-id="2680"></path><path d="M415.2 773.1c-4.8 0-9.7-1.8-13.3-5.5L316 681.7c-7.4-7.4-7.4-19.3 0-26.7 7.4-7.4 19.3-7.4 26.7 0l85.9 85.9c7.4 7.4 7.4 19.3 0 26.7-3.8 3.6-8.6 5.5-13.4 5.5z" fill="#9A4DFF" p-id="2681"></path><path d="M689.7 668.3l-86 85.9" fill="#FFFFFF" p-id="2682"></path><path d="M603.7 773.1c-4.8 0-9.7-1.8-13.3-5.5-7.4-7.4-7.4-19.3 0-26.7l85.9-85.9c7.4-7.4 19.3-7.4 26.7 0 7.4 7.4 7.4 19.3 0 26.7l-85.9 85.9c-3.7 3.6-8.5 5.5-13.4 5.5z" fill="#9A4DFF" p-id="2683"></path></svg>